name rise38.3101peak57.3503fall81.6963.mot
datacolumns 19
datarows 20
range 14.41661600000000 14.44828600000000
endheader
time	ground_force1_vx	ground_force1_vy	ground_force1_vz	ground_force1_px	ground_force1_py	ground_force1_pz	ground_force2_vx	ground_force2_vy	ground_force2_vz	ground_force2_px	ground_force2_py	ground_force2_pz	ground_torque1_x	ground_torque1_y	ground_torque1_z	ground_torque2_x	ground_torque2_y	ground_torque2_z	
14.41661600000000	-6.66727800000000	42.68424200000000	-11.89716700000000	0.32464100000000	0.00000000000000	0.08101200000000	-54.04558900000000	799.05047600000000	-59.37121600000000	0.13810000000000	0.00000000000000	-0.09705900000000	0.00000000000000	-8.51024200000000	0.00000000000000	0.00000000000000	-25.66042100000000	0.00000000000000	
14.41828000000000	-7.27542400000000	50.18051700000000	-13.41853800000000	0.33016300000000	0.00000000000000	0.08231700000000	-54.34862800000000	796.02048200000002	-59.05180000000000	0.13735400000000	0.00000000000000	-0.09702900000000	0.00000000000000	-9.70409900000000	0.00000000000000	0.00000000000000	-25.54653600000000	0.00000000000000	
14.41994900000000	-7.74613300000000	57.81060900000000	-14.81565700000000	0.33525100000000	0.00000000000000	0.08348200000000	-54.65091900000000	792.83254599999998	-58.70297100000000	0.13661600000000	0.00000000000000	-0.09699500000000	0.00000000000000	-10.82989200000000	0.00000000000000	0.00000000000000	-25.42856100000000	0.00000000000000	
14.42161900000000	-8.06056900000000	65.47923900000001	-16.05719900000000	0.33997700000000	0.00000000000000	0.08453000000000	-54.95202000000000	789.48635400000001	-58.32439600000000	0.13588900000000	0.00000000000000	-0.09695700000000	0.00000000000000	-11.86316200000000	0.00000000000000	0.00000000000000	-25.30645500000000	0.00000000000000	
14.42328700000000	-8.20752500000000	73.11331900000000	-17.12212800000000	0.34439600000000	0.00000000000000	0.08548000000000	-55.25147500000000	785.98170300000004	-57.91578700000000	0.13517200000000	0.00000000000000	-0.09691500000000	0.00000000000000	-12.78649100000000	0.00000000000000	0.00000000000000	-25.18018000000000	0.00000000000000	
14.42494800000000	-8.18328700000000	80.66434800000000	-17.99987900000000	0.34855100000000	0.00000000000000	0.08634700000000	-55.54881100000000	782.31849299999999	-57.47690100000000	0.13446700000000	0.00000000000000	-0.09686800000000	0.00000000000000	-13.58984200000000	0.00000000000000	0.00000000000000	-25.04970000000000	0.00000000000000	
14.42661400000000	-7.99092400000000	88.10837700000000	-18.68964700000000	0.35247600000000	0.00000000000000	0.08714200000000	-55.84354000000000	778.49672799999996	-57.00754500000000	0.13377500000000	0.00000000000000	-0.09681600000000	0.00000000000000	-14.27023700000000	0.00000000000000	0.00000000000000	-24.91498300000000	0.00000000000000	
14.42828600000000	-7.63913200000000	95.44395299999999	-19.19900000000000	0.35620000000000	0.00000000000000	0.08787600000000	-56.13515600000000	774.51650900000004	-56.50757400000000	0.13309700000000	0.00000000000000	-0.09675800000000	0.00000000000000	-14.83091500000000	0.00000000000000	0.00000000000000	-24.77599600000000	0.00000000000000	
14.42994900000000	-7.14083400000000	102.68856900000000	-19.54205200000000	0.35974700000000	0.00000000000000	0.08855700000000	-56.42314100000000	770.37803499999995	-55.97689800000000	0.13243500000000	0.00000000000000	-0.09669600000000	0.00000000000000	-15.28012200000000	0.00000000000000	0.00000000000000	-24.63270900000000	0.00000000000000	
14.43161700000000	-6.51166400000000	109.87417000000001	-19.73740600000000	0.36313300000000	0.00000000000000	0.08919100000000	-56.70695800000000	766.08159300000000	-55.41547700000000	0.13178800000000	0.00000000000000	-0.09662800000000	0.00000000000000	-15.62969200000000	0.00000000000000	0.00000000000000	-24.48509500000000	0.00000000000000	
14.43328400000000	-5.76850800000000	117.04224800000000	-19.80609400000000	0.36637600000000	0.00000000000000	0.08978400000000	-56.98605600000000	761.62755900000002	-54.82333000000000	0.13115900000000	0.00000000000000	-0.09655400000000	0.00000000000000	-15.89358400000000	0.00000000000000	0.00000000000000	-24.33312700000000	0.00000000000000	
14.43494800000000	-4.92818800000000	124.23900800000000	-19.76968100000000	0.36948800000000	0.00000000000000	0.09034100000000	-57.25986800000000	757.01639100000000	-54.20053000000000	0.13054700000000	0.00000000000000	-0.09647500000000	0.00000000000000	-16.08648700000000	0.00000000000000	0.00000000000000	-24.17678200000000	0.00000000000000	
14.43661900000000	-4.00638200000000	131.51096100000001	-19.64863900000000	0.37247900000000	0.00000000000000	0.09086600000000	-57.52781100000000	752.24862599999994	-53.54721100000000	0.12995400000000	0.00000000000000	-0.09638900000000	0.00000000000000	-16.22261000000000	0.00000000000000	0.00000000000000	-24.01603600000000	0.00000000000000	
14.43828500000000	-3.01682400000000	138.90123600000001	-19.46110000000000	0.37536000000000	0.00000000000000	0.09136300000000	-57.78928400000000	747.32487900000001	-52.86356800000000	0.12938100000000	0.00000000000000	-0.09629700000000	0.00000000000000	-16.31471200000000	0.00000000000000	0.00000000000000	-23.85086800000000	0.00000000000000	
14.43996100000000	-1.97079200000000	146.44675200000000	-19.22199400000000	0.37813700000000	0.00000000000000	0.09183400000000	-58.04367300000000	742.24583500000006	-52.14985500000000	0.12882800000000	0.00000000000000	-0.09619800000000	0.00000000000000	-16.37340000000000	0.00000000000000	0.00000000000000	-23.68125700000000	0.00000000000000	
14.44161800000000	-0.87687600000000	154.17632699999999	-18.94258300000000	0.38081600000000	0.00000000000000	0.09228200000000	-58.29034500000000	737.01224999999999	-51.40639000000000	0.12829600000000	0.00000000000000	-0.09609300000000	0.00000000000000	-16.40672800000000	0.00000000000000	0.00000000000000	-23.50718600000000	0.00000000000000	
14.44328500000000	0.25900900000000	162.10968900000000	-18.63035400000000	0.38340500000000	0.00000000000000	0.09270900000000	-58.52865100000000	731.62494700000002	-50.63355800000000	0.12778600000000	0.00000000000000	-0.09598200000000	0.00000000000000	-16.42004600000000	0.00000000000000	0.00000000000000	-23.32863500000000	0.00000000000000	
14.44494800000000	1.43340600000000	170.25730700000000	-18.28921400000000	0.38590600000000	0.00000000000000	0.09311800000000	-58.75792800000000	726.08481600000005	-49.83180500000000	0.12729800000000	0.00000000000000	-0.09586300000000	0.00000000000000	-16.41608500000000	0.00000000000000	0.00000000000000	-23.14558800000000	0.00000000000000	
14.44661500000000	2.64495200000000	178.62090300000000	-17.91991600000000	0.38832500000000	0.00000000000000	0.09350900000000	-58.97749300000000	720.39281000000005	-49.00164500000000	0.12683400000000	0.00000000000000	-0.09573700000000	0.00000000000000	-16.39522500000000	0.00000000000000	0.00000000000000	-22.95803000000000	0.00000000000000	
14.44828600000000	3.89392000000000	187.19447400000001	-17.52064300000000	0.39066400000000	0.00000000000000	0.09388500000000	-59.18665000000000	714.54994699999997	-48.14365700000000	0.12639300000000	0.00000000000000	-0.09560400000000	0.00000000000000	-16.35589600000000	0.00000000000000	0.00000000000000	-22.76594400000000	0.00000000000000	
